<svg width="127" height="38" viewBox="0 0 127 38" fill="none" xmlns="http://www.w3.org/2000/svg">
<rect y="0.546875" width="126.062" height="36.6875" rx="18.3438" fill="#010101"/>
<path d="M32.0502 21.0989L30.4187 21.07C30.4187 21.7341 30.592 22.3261 30.9385 22.8458C31.285 23.3656 31.7614 23.7554 32.3678 24.0441C32.9742 24.3329 33.6672 24.4773 34.4757 24.4773C35.1976 24.4773 35.8328 24.3473 36.4103 24.0874C36.9734 23.8276 37.4209 23.4522 37.7386 22.9757C38.0562 22.5137 38.215 21.9796 38.215 21.3732C38.215 20.7668 38.0562 20.2615 37.7674 19.8861C37.4642 19.5107 37.0744 19.2364 36.6124 19.0343C36.136 18.8466 35.5729 18.6878 34.9232 18.5723C34.2736 18.4568 33.7827 18.3557 33.4362 18.2547C33.0897 18.1681 32.8009 18.0237 32.5988 17.8216C32.3967 17.6339 32.2956 17.374 32.2956 17.0419C32.2956 16.5799 32.4689 16.2334 32.8154 15.9736C33.1619 15.7137 33.6383 15.5837 34.2302 15.5837C34.8366 15.5837 35.3275 15.7426 35.7317 16.0602C36.1216 16.3778 36.3526 16.7965 36.4103 17.3162H38.0417C38.0129 16.7099 37.8252 16.1757 37.5076 15.6992C37.1755 15.2372 36.7279 14.8619 36.1649 14.5876C35.5874 14.3277 34.9521 14.1833 34.2302 14.1833C33.5228 14.1833 32.902 14.3132 32.3534 14.5587C31.8047 14.8186 31.3861 15.1651 31.0829 15.6126C30.7797 16.0746 30.6353 16.5799 30.6353 17.1574C30.6353 17.7927 30.7797 18.298 31.0684 18.6734C31.3572 19.0632 31.747 19.3519 32.209 19.5396C32.671 19.7273 33.2341 19.8717 33.8982 19.9872C34.5334 20.1027 35.0387 20.2182 35.3997 20.3192C35.7462 20.4347 36.0349 20.5791 36.2371 20.7812C36.4392 20.9834 36.5547 21.2432 36.5547 21.5753C36.5547 22.0517 36.3526 22.4271 35.9772 22.687C35.6018 22.9469 35.0965 23.0768 34.4901 23.0768C33.7827 23.0768 33.2052 22.9036 32.7721 22.5426C32.3389 22.1817 32.0935 21.7052 32.0502 21.0989ZM46.1446 16.9986H44.5853V20.6657C44.5853 21.4309 44.4121 22.0373 44.08 22.4704C43.7335 22.9036 43.2715 23.1201 42.6796 23.1201C42.1021 23.1201 41.6834 22.9324 41.3946 22.5571C41.1059 22.1817 40.9615 21.6331 40.9615 20.9112V16.9986H39.4023V21.07C39.4023 22.2683 39.6621 23.1346 40.2108 23.6687C40.7449 24.2174 41.4524 24.4773 42.3186 24.4773C43.2715 24.4773 44.0367 24.1452 44.5998 23.4522L44.773 24.3906H46.1446V16.9986ZM53.4417 17.374C52.9075 17.0708 52.3011 16.912 51.637 16.912C50.6264 16.912 49.8179 17.3162 49.2404 18.0959V14.2844H47.6811V24.3906H49.0383L49.226 23.3222C49.4714 23.6832 49.8035 23.9719 50.2077 24.1741C50.612 24.3762 51.0884 24.4773 51.637 24.4773C52.3011 24.4773 52.9075 24.3184 53.4417 24.0008C53.9615 23.6832 54.3801 23.2501 54.6833 22.6726C54.9721 22.0951 55.1309 21.4454 55.1309 20.6946C55.1309 19.915 54.9721 19.2509 54.6833 18.6734C54.3801 18.1103 53.9615 17.6772 53.4417 17.374ZM52.9364 22.4849C52.5321 22.9469 52.0124 23.1634 51.3771 23.1634C50.7275 23.1634 50.2077 22.9324 49.8179 22.4704C49.4136 22.0084 49.226 21.4165 49.226 20.6802C49.226 19.9583 49.4136 19.3808 49.8179 18.9188C50.2077 18.4712 50.7275 18.2402 51.3771 18.2402C52.0124 18.2402 52.5321 18.4712 52.9364 18.9332C53.3406 19.3952 53.5428 19.9727 53.5428 20.6946C53.5428 21.4309 53.3406 22.0229 52.9364 22.4849ZM57.5796 21.9507H56.0781C56.0926 22.7447 56.4102 23.3656 57.0166 23.8131C57.6229 24.2607 58.4314 24.4773 59.4276 24.4773C60.0051 24.4773 60.5393 24.3906 61.0158 24.2029C61.4778 24.0152 61.8531 23.7409 62.1274 23.3944C62.3873 23.0479 62.5317 22.6292 62.5317 22.1672C62.5317 21.6475 62.4018 21.2432 62.1419 20.9401C61.882 20.6369 61.5355 20.4203 61.1024 20.2759C60.6693 20.1316 60.1351 20.0305 59.4998 19.9583C59.0234 19.9006 58.6769 19.8572 58.4748 19.8139C58.2582 19.7706 58.0849 19.6984 57.9406 19.5829C57.7962 19.4674 57.7384 19.3086 57.7384 19.0776C57.7384 18.7889 57.8684 18.5434 58.1571 18.3702C58.4314 18.1969 58.7924 18.1103 59.2544 18.1103C59.7019 18.1103 60.0773 18.2258 60.3805 18.4424C60.6693 18.6589 60.8425 18.9332 60.8858 19.2653H62.4018C62.344 18.5146 62.0264 17.9371 61.4489 17.5184C60.8714 17.1141 60.1062 16.8976 59.1822 16.8976C58.6047 16.8976 58.0994 16.9986 57.6518 17.1863C57.2043 17.3884 56.8578 17.6627 56.5979 18.0092C56.338 18.3557 56.2225 18.76 56.2225 19.2076C56.2225 19.6984 56.338 20.0738 56.5979 20.3626C56.8578 20.6513 57.1898 20.8534 57.6085 20.9834C58.0272 21.1133 58.5614 21.2144 59.2111 21.2866C59.6731 21.3443 60.0196 21.4021 60.2506 21.4598C60.4816 21.5176 60.6548 21.6042 60.7992 21.7197C60.9291 21.8496 61.0013 22.0373 61.0013 22.2827C61.0013 22.5859 60.8425 22.8314 60.5538 23.0046C60.265 23.1779 59.8752 23.2645 59.4132 23.2645C58.879 23.2645 58.4459 23.149 58.1138 22.9036C57.7818 22.6581 57.6085 22.3405 57.5796 21.9507ZM69.4993 23.7554C70.0912 23.2645 70.4666 22.6004 70.6109 21.7341H69.0228C68.9218 22.1672 68.7196 22.5137 68.402 22.7736C68.0844 23.0335 67.6801 23.149 67.2037 23.149C66.5684 23.149 66.0631 22.9324 65.6878 22.4704C65.3124 22.0084 65.1247 21.4165 65.1247 20.6802C65.1247 19.9583 65.3124 19.3808 65.6878 18.9188C66.0631 18.4712 66.5684 18.2402 67.2037 18.2402C67.6657 18.2402 68.0555 18.3702 68.3731 18.6156C68.6908 18.8755 68.8929 19.2076 69.0084 19.6262H70.6109C70.4666 18.7889 70.0912 18.1392 69.5137 17.6483C68.9218 17.1574 68.171 16.912 67.247 16.912C66.4963 16.912 65.8466 17.0708 65.2835 17.3884C64.7204 17.7061 64.2873 18.1392 63.9841 18.7022C63.6665 19.2797 63.5221 19.9294 63.5221 20.6802C63.5221 21.4309 63.6665 22.0951 63.9697 22.6726C64.2729 23.2501 64.706 23.6976 65.2691 24.0152C65.8177 24.3329 66.4674 24.4773 67.2037 24.4773C68.1277 24.4773 68.8929 24.2462 69.4993 23.7554ZM75.9469 16.9986H75.6004C75.0229 16.9986 74.5754 17.0997 74.2433 17.3018C73.8968 17.5039 73.6225 17.7638 73.4204 18.1103L73.2471 16.9986H71.8611V24.3906H73.4204V20.6802C73.4204 20.0449 73.5648 19.5107 73.8535 19.0921C74.1423 18.6734 74.6043 18.4568 75.2539 18.4568H75.9469V16.9986ZM78.395 14.3132C78.2073 14.14 77.9763 14.0389 77.7164 14.0389C77.4421 14.0389 77.2111 14.14 77.0379 14.3132C76.8502 14.4865 76.7636 14.7175 76.7636 14.9774C76.7636 15.2517 76.8502 15.4827 77.0379 15.6559C77.2111 15.8292 77.4421 15.9158 77.7164 15.9158C77.9763 15.9158 78.2073 15.8292 78.395 15.6559C78.5683 15.4827 78.6693 15.2517 78.6693 14.9774C78.6693 14.7175 78.5683 14.4865 78.395 14.3132ZM76.9368 16.9986V24.3906H78.4961V16.9986H76.9368ZM85.7851 17.374C85.2509 17.0708 84.6445 16.912 83.9804 16.912C82.9698 16.912 82.1613 17.3162 81.5838 18.0959V14.2844H80.0245V24.3906H81.3817L81.5693 23.3222C81.8148 23.6832 82.1468 23.9719 82.5511 24.1741C82.9553 24.3762 83.4318 24.4773 83.9804 24.4773C84.6445 24.4773 85.2509 24.3184 85.7851 24.0008C86.3048 23.6832 86.7235 23.2501 87.0267 22.6726C87.3155 22.0951 87.4743 21.4454 87.4743 20.6946C87.4743 19.915 87.3155 19.2509 87.0267 18.6734C86.7235 18.1103 86.3048 17.6772 85.7851 17.374ZM85.2798 22.4849C84.8755 22.9469 84.3558 23.1634 83.7205 23.1634C83.0708 23.1634 82.5511 22.9324 82.1613 22.4704C81.757 22.0084 81.5693 21.4165 81.5693 20.6802C81.5693 19.9583 81.757 19.3808 82.1613 18.9188C82.5511 18.4712 83.0708 18.2402 83.7205 18.2402C84.3558 18.2402 84.8755 18.4712 85.2798 18.9332C85.684 19.3952 85.8862 19.9727 85.8862 20.6946C85.8862 21.4309 85.684 22.0229 85.2798 22.4849ZM88.8969 18.7167C88.5937 19.2942 88.4494 19.9583 88.4494 20.7091C88.4494 21.4598 88.5937 22.1239 88.9114 22.687C89.229 23.2645 89.6621 23.6976 90.2396 24.0152C90.8171 24.3329 91.4812 24.4773 92.2609 24.4773C93.1416 24.4773 93.8779 24.2462 94.4698 23.7554C95.0617 23.2789 95.4227 22.6581 95.5671 21.9074H94.0078C93.8923 22.3261 93.6757 22.6437 93.3581 22.8747C93.0261 23.1057 92.6218 23.2067 92.1454 23.2067C91.539 23.2067 91.0481 23.0191 90.6872 22.6437C90.3118 22.2683 90.1097 21.763 90.0808 21.1133V21.0267H95.6537C95.6826 20.8246 95.697 20.6369 95.697 20.4347C95.6826 19.7273 95.5237 19.1065 95.2061 18.5723C94.8885 18.0526 94.4698 17.6339 93.9212 17.3451C93.3726 17.0564 92.7517 16.912 92.0443 16.912C91.3369 16.912 90.7161 17.0708 90.1674 17.3884C89.6188 17.7061 89.2001 18.1392 88.8969 18.7167ZM94.1089 19.8861H90.1386C90.1963 19.3664 90.3984 18.9621 90.7738 18.6445C91.1492 18.3269 91.5823 18.1681 92.1021 18.1681C92.6507 18.1681 93.0982 18.3269 93.4592 18.6301C93.8201 18.9332 94.0367 19.3519 94.1089 19.8861Z" fill="white"/>
</svg>
